<svg width="30" height="29" viewBox="0 0 30 29" fill="none" xmlns="http://www.w3.org/2000/svg">
<path d="M14.1933 24.9303C7.87313 21.8285 4.1933 9.93028 4.1933 9.93028C4.1933 9.93028 2.95137 6.06561 4.1933 4.20762C4.90243 3.14674 5.5639 2.60266 6.77727 2.20762C7.89129 1.84492 8.65801 1.86145 9.77727 2.20762C11.2342 2.65823 12.1227 3.33023 12.7773 4.70765C13.4478 6.11852 13.0679 7.17282 12.7773 8.70765C12.4195 10.5972 10.3765 11.3268 10.7773 13.2076C11.0951 14.6992 11.9184 15.5154 13.2773 16.2076C14.8431 17.0054 16.1596 15.5209 17.7773 16.2076C19.9712 17.139 21.4025 18.8274 21.2773 21.2076C21.1905 22.8557 20.645 24.0067 19.2773 24.9303C17.6319 26.0414 15.7773 25.7076 14.1933 24.9303Z" stroke="black" stroke-width="2"/>
<path d="M17.7773 5.70764C22.3388 7.67296 23.5492 9.71883 23.7773 14.7076" stroke="black" stroke-width="2" stroke-linecap="round"/>
<path d="M18.1884 1.92356C24.8911 4.89714 27.1073 7.58145 27.1884 14.9236" stroke="black" stroke-width="2" stroke-linecap="round"/>
</svg>
